<?xml version="1.0" encoding="UTF-8"?>
<svg id="a" data-name="svg421" xmlns="http://www.w3.org/2000/svg" viewBox="0 0 44.8 57.5">
  <g id="b" data-name="layer1">
    <path id="c" data-name="path397" d="M0,28.75V0H29.46l7.67,7.68,7.67,7.68V57.5H0V28.75Zm42.25,7.5l.09-18.61h-14.81l-.1-7.5-.1-7.5H2.65l-.09,25.75c-.05,14.16-.01,25.95,.08,26.2,.13,.35,4.29,.42,19.85,.35l19.68-.09,.09-18.61Zm-25.55,15.63c-14.27-5.14-11.36-25.82,3.82-27.08,11.95-1,19.16,13.26,11.56,22.86-3.33,4.21-10.18,6.09-15.38,4.22Zm10.39-2.12c11.56-6.17,7.33-23.48-5.74-23.48-14.08,0-17.33,19.49-4.06,24.3,2.73,.99,7.08,.63,9.79-.83Zm-6.71-2.16c-1.15-.67-.53-2.44,.85-2.44,.52,0,1.35,.94,1.35,1.54,0,.86-1.34,1.41-2.2,.9Zm-.03-8.35c-.13-1.89-.23-4.51-.23-5.82v-2.38s1.11,0,1.11,0h1.11l-.23,3.23c-.13,1.78-.23,4.4-.23,5.82,0,4.45-1.23,3.77-1.53-.85h0ZM5.29,21.7c0-.46,2.12-.53,16.93-.53s16.93,.07,16.93,.53-2.12,.53-16.93,.53-16.93-.07-16.93-.53Zm0-8.11c0-.46,1.29-.53,9.52-.53s9.53,.07,9.53,.53-1.29,.53-9.53,.53-9.52-.07-9.52-.53Zm34.57,1.32c0-.15-2.22-2.49-4.94-5.2l-4.94-4.93v4.96c0,2.73,.11,5.07,.24,5.2,.33,.33,9.64,.3,9.64-.03h0Z"/>
  </g>
</svg>