<?xml version="1.0" encoding="UTF-8"?>
<svg id="a" data-name="svg421" xmlns="http://www.w3.org/2000/svg" viewBox="0 0 44.8 57.5">
  <g id="b" data-name="layer1">
    <path id="c" data-name="path277" d="M0,28.75V0H29.11l7.85,7.85,7.85,7.85V57.5H0V28.75Zm42.25,7.5l.09-18.61h-15.18V2.46l-12.26,.09-12.26,.09-.09,25.75c-.05,14.16-.02,25.95,.08,26.2,.13,.35,4.29,.42,19.85,.35l19.68-.09,.09-18.61Zm-23.8,14.57c-5.68-1.38-10.54-6.83-11.34-12.72-1.68-12.45,10.2-21.22,22.14-16.33,.34,.14,.43,.03,.29-.34-.31-.82,.54-1.76,1.47-1.62,.96,.14,2.65,3.86,2.34,5.12-.2,.82-3.43,2.02-4.86,1.81-1.17-.18-1.59-1.17-.83-2.01,.63-.69,.61-.72-1.37-1.29-6.25-1.82-12.74,1.02-15.59,6.81-1.33,2.72-1.45,8.08-.23,10.73,2.12,4.61,6.2,7.26,11.76,7.66l3,.21v2.12l-2.82,.06c-1.55,.03-3.33-.07-3.96-.22h0Zm9.4-1.63c-.63-.76-.11-1.52,1.74-2.56,2.55-1.43,3.63,.57,1.2,2.23-1.52,1.03-2.29,1.12-2.94,.34Zm5.29-4.59c-.63-.76,.9-3.79,2-3.95,1.22-.17,1.68,.72,1.09,2.12-.92,2.2-2.17,2.95-3.09,1.83Zm-9.85-4.7l-3-1.34v-5.07c0-4.6,.06-5.08,.63-5.19,1.37-.26,1.66,.53,1.66,4.57v3.85l2.65,1.21c2.74,1.25,3.38,1.94,2.64,2.84-.63,.75-1.23,.64-4.58-.86Zm12.37-1.94c-.6-.72-.33-3.75,.37-4.19,1.14-.71,1.72-.04,1.72,1.97,0,2.43-1.02,3.52-2.09,2.23Zm-1.8-7.99c-.89-1.75-.8-2.93,.24-3.08,1.4-.2,3.14,2.91,2.24,3.99-.78,.94-1.71,.6-2.48-.91Zm6.01-15.06c0-.15-2.22-2.49-4.94-5.2l-4.94-4.93V15.17h4.94c2.72,0,4.94-.12,4.94-.27Z"/>
  </g>
</svg>