<?xml version="1.0" encoding="UTF-8"?>
<svg id="a" data-name="svg421" xmlns="http://www.w3.org/2000/svg" viewBox="0 0 44.45 57.5">
  <g id="b" data-name="layer1">
    <path id="c" data-name="path403" d="M0,28.75V0H28.76l7.85,7.85,7.85,7.85V57.5H0V28.75Zm42.33,7.41V17.29h-15.17V2.47H2.12V55.03H42.33v-18.87Zm-22.89,9.89c-9.39-4.63-12.56-7.42-10.62-9.36,1.39-1.39,7.22,.76,8.55,3.16,.81,1.46,2.63,2.19,5.15,2.06,3.04-.16,2.79-1.1-.38-1.37-4.69-.4-5.48-3.5-.9-3.5,1.65,0,2.54-.25,4.51-1.23,2.19-1.1,2.75-1.23,5.28-1.23h2.83v9.84l-3.09,1.68c-4.67,2.55-6.1,2.54-11.34-.05h0Zm15.84-6.54v-6h6.7v11.99h-6.7v-6Zm-17.57-9.08l-3.23-3.79,1.58-.11,1.58-.11v-4.19h7.06v4.23h3.21l-3.28,3.86c-3.96,4.65-3.06,4.64-6.92,.11Zm22.51-15.52c0-.35-9.97-10.32-10.31-10.32-.15,0-.27,2.38-.27,5.29v5.29h5.29c2.91,0,5.29-.12,5.29-.26Z"/>
  </g>
</svg>