<?xml version="1.0" encoding="UTF-8"?>
<svg id="a" data-name="svg421" xmlns="http://www.w3.org/2000/svg" viewBox="0 0 44.8 57.15">
  <g id="b" data-name="layer1">
    <path id="c" data-name="path409" d="M0,28.57V0H29.11l7.85,7.85,7.85,7.85V57.15H0V28.57Zm42.33,7.58V17.29h-14.82V2.47H2.47V55.03H42.33v-18.87Zm-24.85,16.38c-11.12-3.93-14.32-17.66-6.04-25.93,10.25-10.25,27.19-2.74,26.6,11.79-.43,10.42-10.83,17.58-20.56,14.15Zm7.41-1.07c16.79-3.07,14.58-27.66-2.48-27.66-18.25,0-18.41,26.63-.16,28,.3,.02,1.49-.13,2.65-.34Zm-10.69-5.14c-.87-.35-.39-1.04,3.35-4.79l3.79-3.8-3.79-3.8c-3.81-3.82-4.26-4.51-3.23-4.91,.39-.15,1.72,.94,4.41,3.62l3.85,3.84,3.8-3.79c3.87-3.86,4.42-4.23,4.81-3.21,.16,.41-.86,1.68-3.56,4.41l-3.78,3.83,3.84,3.89c3.6,3.65,3.8,3.93,3.24,4.49-.56,.56-.83,.36-4.47-3.26l-3.87-3.86-3.84,3.78c-2.11,2.08-3.9,3.77-3.98,3.75-.08-.02-.34-.11-.58-.21ZM40.57,15.08c0-.05-2.38-2.47-5.29-5.38l-5.29-5.28V15.17h5.29c2.91,0,5.29-.04,5.29-.09Z"/>
  </g>
</svg>