<?xml version="1.0" encoding="UTF-8"?>
<svg id="a" data-name="svg421" xmlns="http://www.w3.org/2000/svg" viewBox="0 0 44.8 57.15">
  <g id="b" data-name="layer1">
    <path id="c" data-name="path399" d="M0,28.58V0H29.11l7.85,7.85,7.85,7.85V57.15H0V28.58Zm42.33,7.41V17.29h-14.82V2.12H2.47V54.68H42.33v-18.7Zm-23.64,15.02c-13.98-3.9-15.78-23.07-2.74-29.13,13.51-6.28,27.12,7.65,20.56,21.02-3.18,6.49-10.95,10.02-17.82,8.11Zm8.74-1.99c6.86-2.35,10.76-10.12,8.6-17.13-3.11-10.13-15.98-13.33-23.32-5.8-10.34,10.62,.65,27.75,14.72,22.93Zm-10.87-8.32c-1.79-1.67-2.27-2.95-1.11-2.95,.35,0,1.26,.64,2.02,1.42l1.38,1.42,5.66-5.65c5.36-5.35,6.89-6.47,6.89-5.03,0,.82-11.64,12.43-12.45,12.43-.35,0-1.42-.74-2.38-1.64ZM40.57,14.72c0-.05-2.38-2.47-5.29-5.38l-5.29-5.28V14.82h5.29c2.91,0,5.29-.04,5.29-.09Z"/>
  </g>
</svg>