<?xml version="1.0" encoding="UTF-8"?>
<svg id="a" data-name="svg421" xmlns="http://www.w3.org/2000/svg" viewBox="0 0 44.8 57.15">
  <g id="b" data-name="layer1">
    <path id="c" data-name="path395" d="M0,28.57V0H29.11l7.85,7.85,7.85,7.85V57.15H0V28.57Zm42.33,7.58V17.29h-14.82V2.47H2.47V55.03H42.33v-18.87Zm-24.25,14.5c-11.55-3.76-12.9-20.42-2.08-25.71,14.66-7.18,27.77,11.96,15.68,22.88-3.21,2.9-9.42,4.19-13.6,2.83Zm8.89-1.65c4.25-1.59,7.55-6.03,7.87-10.61,.85-11.9-13.3-18.23-21.45-9.61-9.1,9.62,1.14,24.87,13.58,20.22Zm-5.54-2.83c-1.15-.67-.53-2.44,.85-2.44,.52,0,1.35,.94,1.35,1.54,0,.86-1.34,1.41-2.2,.9Zm-.03-8.35c-.13-1.89-.23-4.51-.23-5.82v-2.38s1.11,0,1.11,0h1.11l-.23,3.23c-.13,1.78-.23,4.4-.23,5.82,0,4.45-1.23,3.77-1.53-.85h0ZM8.93,18.74c-.1-.39-.6-.75-1.19-.87-1.46-.29-2.42-1.82-1.63-2.61,.54-.54,.63-.52,1.3,.2,1.32,1.41,4.93,.84,4.93-.78,0-.88-1.28-1.62-2.78-1.62-2.71,0-4.28-1.38-4.28-3.75,0-1.08,1.77-2.95,2.8-2.95,.4,0,.73-.23,.73-.51,0-.86,.79-1.05,1.38-.33,.31,.38,1.06,.89,1.66,1.14,1.38,.57,2.09,1.92,1.34,2.55-.42,.35-.67,.29-1.33-.33-.91-.85-3.66-1.06-4.39-.33-1.23,1.23,.03,2.75,2.27,2.75,4.47,0,6.09,4.94,2.1,6.39-.67,.24-1.29,.73-1.38,1.08-.22,.85-1.31,.83-1.53-.02Zm31.64-3.66c0-.05-2.38-2.47-5.29-5.38l-5.29-5.28V15.17h5.29c2.91,0,5.29-.04,5.29-.09Z"/>
  </g>
</svg>