<?xml version="1.0" encoding="utf-8"?>
<!-- Generator: Adobe Illustrator 26.5.0, SVG Export Plug-In . SVG Version: 6.00 Build 0)  -->
<svg version="1.1" id="a" xmlns="http://www.w3.org/2000/svg" xmlns:xlink="http://www.w3.org/1999/xlink" x="0px" y="0px"
	 viewBox="0 0 44.5 57.5" style="enable-background:new 0 0 44.5 57.5;" xml:space="preserve">
<g id="b">
	<path id="c" d="M0,28.8V0h28.8l7.9,7.8l7.8,7.8v41.8H0V28.8z M42.3,36.2V17.3H27.2V2.5h-25V55h40.2C42.3,55,42.3,36.2,42.3,36.2z
		 M11.8,20.3c2.3,0.3,15.4,1.3,15.1,0.8c-0.6-1.3-4.1-3.6,1.9-1.7c2.9,0.6,2.5,0.7,8.6,1.9c4.1,0.8,2.3,1.9-3.3,3.9
		c-4.8,2-11.2,3.4-7.2-0.4c1.7-1-11.3-0.5-15.1,0.3V20.3z M20.7,45.8c-0.1-0.5-0.5-0.9-1.5-1.2c-2.3-0.8-3.6-2.5-2.7-3.5
		c0.6-0.8,1.5-0.6,2.4,0.4c1.7,2,6.4,1,6.4-1.4c0-1.7-0.7-2-4.1-2.3c-6.6-0.5-7.6-9.5-1-9.5c0.3,0,0.6-0.4,0.6-0.8
		c0.2-1.1,2.2-1.2,2.3,0c0.1,0.5,0.4,0.8,1.1,1c1.4,0.3,3.2,2.2,3.1,3.1c-0.2,1.4-1.2,1.5-2.6,0.3c-2.4-2.1-6.5-1.2-6.5,1.3
		c0,1.4,1.1,2.1,3.6,2.1c6.6,0,8.8,8.2,2.5,9.4c-0.8,0.2-1.2,0.4-1.3,1C23,46.8,20.9,46.9,20.7,45.8L20.7,45.8z M40.2,14.9
		c0-0.4-10-10.3-10.3-10.3c-0.1,0-0.3,2.4-0.3,5.3v5.3h5.3C37.8,15.2,40.2,15,40.2,14.9z"/>
</g>
</svg>
