<?xml version="1.0" encoding="UTF-8"?>
<svg id="a" data-name="svg421" xmlns="http://www.w3.org/2000/svg" viewBox="0 0 44.45 57.5">
  <g id="b" data-name="layer1">
    <path id="c" data-name="path405" d="M0,28.75V0H28.76l7.85,7.85,7.85,7.85V57.5H0V28.75Zm42.33,7.41V17.29h-15.17V2.47H2.12V55.03H42.33v-18.87Zm-24.18,15.91c-9.68-2.35-15.02-13.16-10.96-22.18,3.44-7.65,12.05-11.33,20.08-8.59,2.16,.73,2.39,.76,2.25,.22-.36-1.37,1.28-2.39,2.13-1.32,2.33,2.95,1.9,5.29-1.15,6.24-2.6,.81-5.22-.69-2.82-1.61,1.85-.71-2.16-2.07-6-2.03-17.76,.17-17.93,26.2-.18,27.28,2.94,.18,3.36,.29,3.48,.89,.3,1.55-2.91,2.07-6.84,1.12Zm9.49-1.8c-.54-1.4,3.06-3.7,3.93-2.52,.63,.86,.36,1.47-1.05,2.34-1.36,.84-2.6,.92-2.88,.18Zm-6.89-4.42c-.08-.52-.54-.91-1.46-1.22-2.3-.79-3.59-2.47-2.7-3.54,.63-.76,1.53-.62,2.39,.37,1.71,1.96,6.42,.95,6.42-1.39,0-1.66-.69-2.05-4.14-2.32-6.63-.53-7.61-9.52-1.04-9.52,.3,0,.59-.36,.65-.79,.16-1.14,2.18-1.16,2.34-.02,.07,.53,.44,.84,1.15,1,1.36,.3,3.22,2.17,3.08,3.09-.21,1.42-1.17,1.54-2.56,.32-2.36-2.07-6.55-1.21-6.55,1.35,0,1.44,1.13,2.11,3.58,2.11,6.58,0,8.81,8.2,2.55,9.38-.82,.15-1.18,.43-1.26,.97-.16,1.12-2.3,1.3-2.46,.21Zm12.53-.54c-.36-.94,1.29-3.68,2.22-3.68,1.15,0,1.29,.97,.4,2.6-.88,1.59-2.21,2.14-2.61,1.08Zm2.73-6.65c-.76-.92-.33-4.24,.57-4.37,1.05-.15,1.65,1.07,1.41,2.86-.24,1.83-1.15,2.52-1.98,1.51Zm-1.97-8.76c-1.33-2.87,.31-3.93,1.94-1.25,1.12,1.84,.82,3.1-.75,3.1-.19,0-.73-.83-1.2-1.85Zm6.18-14.99c0-.35-9.97-10.32-10.31-10.32-.15,0-.27,2.38-.27,5.29v5.29h5.29c2.91,0,5.29-.12,5.29-.26Z"/>
  </g>
</svg>