<?xml version="1.0" encoding="UTF-8"?>
<svg id="a" data-name="svg421" xmlns="http://www.w3.org/2000/svg" viewBox="0 0 44.8 57.5">
  <g id="b" data-name="layer1">
    <path id="c" data-name="path407" d="M0,28.75V0H29.11l7.85,7.85,7.85,7.85V57.5H0V28.75Zm42.6,7.5l-.09-18.79-7.5-.1-7.5-.1V2.47H2.47V55.03H42.69l-.09-18.79Zm-23.87,14.72c-5.99-1.68-10.52-6.79-11.19-12.61-.35-3.02,.66-2.88,1.26,.18,2.14,10.92,14.62,15.24,22.86,7.92l1.82-1.62-1.67-.11c-2.58-.17-1.96-.8,.89-.92l2.56-.1v2.48c0,1.97-.11,2.48-.53,2.48-.37,0-.53-.37-.53-1.22v-1.22l-2.26,1.71c-4,3.03-9.06,4.18-13.22,3.01h0Zm1.37-5.77c-6.91-2.27-9.03-10.34-4.06-15.45,6.85-7.04,18.14-.04,15.29,9.47-1.24,4.15-7.18,7.31-11.23,5.97Zm5.97-2.14c4.4-2.24,5.57-8,2.42-11.83-4.56-5.53-13.67-2.24-13.67,4.93,0,5.79,6.1,9.53,11.26,6.9Zm-4.06-1.22c-.1-.27-.66-.69-1.24-.93-1.18-.49-1.81-1.4-1.41-2.04,.29-.46,1.45-.2,1.45,.33,0,.45,3.44,.39,3.72-.06,.7-1.13-.16-2.01-2.15-2.17-3.74-.31-5.16-5.57-1.51-5.57,.36,0,.75-.24,.87-.53,.11-.29,.49-.53,.83-.53s.72,.24,.83,.53c.11,.29,.42,.53,.69,.53,.65,0,1.65,1.14,1.65,1.88s-.36,.75-1.26,.07c-1.2-.9-3.63-.7-3.89,.32-.3,1.2,.06,1.61,1.41,1.61,1.61,0,3.33,.66,3.74,1.43,.87,1.62-.11,4.22-1.58,4.22-.28,0-.69,.32-.89,.71-.44,.82-1,.92-1.27,.21h0Zm14.04-7.68c-2.04-10.98-14.61-15.32-22.94-7.92l-1.85,1.64h1.81c2.93,0,2.05,.86-1.02,.99l-2.53,.1v-2.51c0-2.78,1.1-3.68,1.35-1.11l.11,1.17,1.59-1.47c8.85-8.16,24.82-1.66,24.82,10.1,0,2.08-.89,1.43-1.34-.99Zm4.51-19.08c0-.05-2.38-2.47-5.29-5.38l-5.29-5.28V15.17h5.29c2.91,0,5.29-.04,5.29-.09Z"/>
  </g>
</svg>