<?xml version="1.0" encoding="UTF-8"?>
<svg id="a" data-name="svg421" xmlns="http://www.w3.org/2000/svg" viewBox="0 0 44.8 57.5">
  <g id="b" data-name="layer1">
    <path id="c" data-name="path401" d="M0,28.75V0H29.09l7.86,7.86,7.86,7.86V57.5H0V28.75Zm42.33,21.52v-4.76h-6.7v-11.99h6.7V17.29h-14.82V2.47H2.47V55.03H42.33v-4.76Zm-22.85-4.22c-7.21-3.61-11.01-6.37-11.01-8.01-.02-2.98,7.32-1.6,8.92,1.68,.75,1.53,2.59,2.32,5.1,2.19,2.95-.15,2.85-1.09-.16-1.37-4.96-.47-5.61-3.48-.75-3.5,1.43,0,2.45-.3,4.3-1.23,2.16-1.09,2.73-1.23,5.2-1.23h2.78v10.11l-3.44,1.65c-4.79,2.29-5.85,2.27-10.94-.28Zm-4.24-15.72l-3.27-3.87h3.54v-4.23h6.7v4.19l1.55,.11,1.55,.11-3.13,3.7c-3.86,4.56-3.09,4.56-6.95,0h0Zm2.74-11.38c0-.25-.56-.66-1.23-.9-1.31-.47-2.12-1.54-1.8-2.37,.27-.71,1.05-.62,1.8,.2,1.35,1.5,5.15,.39,4.52-1.31-.33-.9-.82-1.14-2.32-1.15-1.71,0-3.62-.8-4.11-1.72-1.04-1.95,.21-4.99,2.06-4.99,.39,0,.88-.32,1.09-.71,.21-.39,.63-.71,.93-.71s.63,.32,.73,.71c.1,.39,.48,.71,.85,.71s.98,.32,1.37,.71c.85,.85,.94,2.12,.14,2.12-.31,0-.97-.32-1.46-.71-2.21-1.74-5.69,.35-3.78,2.27,.37,.37,1.2,.55,2.49,.55,2.48,0,3.66,1.01,3.66,3.11,0,1.47-1.07,3.24-1.97,3.24-.28,0-.78,.32-1.11,.71-.68,.79-1.86,.95-1.86,.25Zm22.22-4.04c0-.35-9.97-10.32-10.31-10.32-.15,0-.27,2.38-.27,5.29v5.29h5.29c2.91,0,5.29-.12,5.29-.26Z"/>
  </g>
</svg>