<?xml version="1.0" encoding="UTF-8"?>
<svg xmlns="http://www.w3.org/2000/svg" viewBox="0 0 814.01 321">
  <g id="Capa_2" data-name="Capa 2">
    <circle id="circulo" cx="160.5" cy="160.5" r="160.5" style="fill: #f26925;"/>
    <g id="centro">
      <path d="M142.5,257.5s-3,3-30-10-39-44-39-44H16.5l72-43L16.5,95.5l97,28L81.5,41.5l60,58L163.5,8.5l24,91,51-61-23,85,87-29-59,66,66,43h-55s-19.4,25.53-42,38c-29,16-38,16-38,16,0,0,20-19,21-35s-2.96-39.87-37.98-40.43-38.93,27.42-37.02,41.43c1.98,14.5,22.32,36.47,22,34Z" style="fill: #fff;"/>
    </g>
  </g>
  <g id="texto">
    <g id="grupo">
      <path id="b" d="M491.71,283.53h-68.69c-9.92,0-17-2.36-21.24-7.08-4.24-4.72-6.36-12.23-6.36-22.54V74.52c0-10.52,2.17-18.09,6.52-22.71,4.34-4.61,11.37-6.92,21.08-6.92h72.83c10.73,0,20.03,.71,27.91,2.12,7.87,1.41,14.92,4.13,21.16,8.14,5.31,3.37,10.02,7.62,14.11,12.78,4.09,5.16,7.21,10.85,9.35,17.09,2.15,6.24,3.22,12.83,3.22,19.78,0,23.87-11.25,41.35-33.73,52.41,29.54,9.99,44.31,29.41,44.31,58.27,0,13.35-3.22,25.37-9.66,36.05-6.44,10.69-15.13,18.58-26.07,23.68-6.85,3.04-14.72,5.18-23.61,6.43-8.89,1.25-19.27,1.87-31.13,1.87Zm-50.75-202.33v61.69h41.71c11.35,0,20.11-1.14,26.3-3.42,6.18-2.28,10.91-6.62,14.18-13.02,2.55-4.56,3.83-9.66,3.83-15.3,0-12.04-4.04-20.05-12.11-24.01-8.08-3.96-20.39-5.94-36.95-5.94h-36.95Zm47.38,96.36h-47.38v69.67h48.91c30.77,0,46.15-11.77,46.15-35.32,0-12.05-3.99-20.78-11.96-26.21-7.97-5.42-19.88-8.14-35.73-8.14Z" style="fill: #04589c;"/>
      <path id="d" d="M649.79,44.9h59.34c15.43,0,28.67,1.52,39.71,4.56,11.04,3.04,21.06,8.74,30.05,17.09,23.41,21.27,35.11,53.61,35.11,97.01,0,14.32-1.18,27.4-3.53,39.23-2.35,11.83-5.98,22.49-10.89,31.99-4.91,9.5-11.19,17.99-18.86,25.47-6.03,5.75-12.63,10.36-19.78,13.84-7.16,3.47-14.85,5.92-23.08,7.33-8.23,1.41-17.51,2.12-27.83,2.12h-59.34c-8.28,0-14.52-1.33-18.71-3.99-4.19-2.66-6.93-6.4-8.2-11.23-1.28-4.83-1.92-11.09-1.92-18.8V74.52c0-10.42,2.2-17.96,6.59-22.63,4.39-4.66,11.5-7,21.31-7Zm17.63,38.25V245.11h34.5c7.56,0,13.49-.22,17.79-.65,4.29-.43,8.74-1.52,13.34-3.25,4.6-1.74,8.59-4.18,11.96-7.33,15.23-13.67,22.85-37.22,22.85-70.64,0-23.55-3.35-41.18-10.04-52.9-6.7-11.72-14.95-19.18-24.76-22.38-9.81-3.2-21.67-4.8-35.57-4.8h-30.05Z" style="fill: #04589c;"/>
    </g>
  </g>
</svg>